/* XPM */
static char *_9ab875cfaae41c29bebf90dc80be6f9qTU4hyADZcb1GwLD[] = {
/* columns rows colors chars-per-pixel */
"64 64 150 2 ",
"   c None",
".  c black",
"X  c #080400",
"o  c #000408",
"O  c #080408",
"+  c #100C08",
"@  c #000810",
"#  c #001010",
"$  c gray10",
"%  c #2E2014",
"&  c #272729",
"*  c #393431",
"=  c #383738",
"-  c #3C3B3D",
";  c #4C2C2E",
":  c #443426",
">  c #443529",
",  c #423531",
"<  c #413039",
"1  c #413C39",
"2  c #5C4A2E",
"3  c #554439",
"4  c #5F4939",
"5  c #544237",
"6  c #6A4A2D",
"7  c #6D4F39",
"8  c #624B3B",
"9  c #734C31",
"0  c #6D533F",
"q  c #7B5736",
"w  c #735239",
"e  c #78573C",
"r  c #7D5A3B",
"t  c #413F40",
"y  c #414041",
"u  c #4F4742",
"i  c #544C45",
"p  c #675445",
"a  c #62554A",
"s  c #685444",
"d  c #715640",
"f  c #795640",
"g  c #795B43",
"h  c #735D4D",
"j  c #785E4A",
"k  c #775C44",
"l  c #7F6142",
"z  c #7A624B",
"x  c #786656",
"c  c #8B5520",
"v  c #945929",
"b  c #805C3F",
"n  c #9E6933",
"m  c #A9743D",
"M  c #80594F",
"N  c #835D5F",
"B  c #A1474F",
"V  c #AF595D",
"C  c #816246",
"Z  c #896344",
"A  c #966C46",
"S  c #9A714E",
"D  c #997B4D",
"F  c #A9774A",
"G  c #B27E4E",
"H  c #A67950",
"J  c #AB7E55",
"K  c #B07D63",
"L  c #AA6A71",
"P  c #E6636A",
"I  c #EE6973",
"U  c #A08151",
"Y  c #AC8557",
"T  c #AC8A57",
"R  c #BB8C5D",
"E  c #B68458",
"W  c #BF905D",
"Q  c #98816A",
"!  c #BF8165",
"~  c #B48D67",
"^  c #B28D68",
"/  c #BA8E64",
"(  c #BF9060",
")  c #BF9768",
"_  c #A48F77",
"`  c #A6967F",
"'  c #C08957",
"]  c #CE8E53",
"[  c #C48C58",
"{  c #C5905E",
"}  c #CD915A",
"|  c #C59463",
" . c #CD9562",
".. c #C59A6A",
"X. c #CC9868",
"o. c #CD9A66",
"O. c #D09A64",
"+. c #DA9E64",
"@. c #CA8F76",
"#. c #DDA166",
"$. c #D7A26C",
"%. c #DDA56B",
"&. c #CAA47D",
"*. c #E6A16A",
"=. c #E5AA6D",
"-. c #E8AC6F",
";. c #E6AA73",
":. c #EAAE71",
">. c #ECAE7A",
",. c #FFAA7B",
"<. c #ECB275",
"1. c #EEB678",
"2. c #F1B676",
"3. c #FFBE73",
"4. c #F1B57C",
"5. c #F5BA7B",
"6. c #FCBE7C",
"7. c #FEC27C",
"8. c #BC758D",
"9. c #C17791",
"0. c #C67895",
"q. c #D07C9C",
"w. c #6A9FBA",
"e. c #7BB6D5",
"r. c #899B9B",
"t. c #849BA0",
"y. c #A7BCBD",
"u. c #C9AC8B",
"i. c #EAA68C",
"p. c #FDBF84",
"a. c #FDBE88",
"s. c #F6AE94",
"d. c #F7B192",
"f. c #F8B290",
"g. c #F9B498",
"h. c #E985AF",
"j. c #E685B4",
"k. c #EA85B0",
"l. c #F7ADA4",
"z. c #F5A6AE",
"x. c #FEC381",
"c. c #FFCE83",
"v. c #FFCA8B",
"b. c #FED18D",
"n. c #FFDD98",
"m. c #E6CAA4",
"M. c #FFE6A1",
"N. c #FFF2AC",
"B. c #FFFFEE",
"V. c #FFFFF6",
/* pixels */
"                                                                                                                                ",
"                                                              . . . .                                                           ",
"                                                              . . . .                                                           ",
"                                                          . . P P P P . .                                                       ",
"                                                          . . P P P P . .                                                       ",
"                                                          . . P P I I O O                                                       ",
"                                                          . . P P I I O O                                                       ",
"                                                      . . P P P P I I B B . .                                                   ",
"                                                      . . P P P P I I B B . .                                                   ",
"                                                      . . P P ; ; P P V V . .                                                   ",
"                                                      . . P I ; ; P P V V . .                                                   ",
"                                                          # @ P P t t V V . .                                                   ",
"                                                          # # P P y t V V . .                                                   ",
"                                                      . . < < ' { > > @ @                                                       ",
"                                                      . . < t K K > > @ @                                                       ",
"                                                  . . x.,.,.f.j N } } } } . .                                                   ",
"                                                  . . x.x.,.,.j M } } { } . .                                                   ",
"                                              . . 7.x.x.x.<.>.x.x.x.x.#.<.5.7.. .                                               ",
"                                              . . x.x.x.x.>.>.x.x.p.5.p.x.x.x.. .                                               ",
"                          . . . .         . . j.j.x.x.x.x.x.x.x.x.x.x.x.7.x.x.j.j.. .         . . . .                           ",
"                          . . . .         . . j.j.x.x.x.x.x.x.x.p.x.x.x.x.x.x.j.j.. .         . . . .                           ",
"                  . . . . } } } } o o o o } } x.x.v.v.y.y.x.x.7.x.a.x.y.y.v.v.x.x.} } o o o o } } } } . . . .                   ",
"                  . . . . } } } } o o o o } } x.x.v.v.y.y.x.x.x.x.g.x.y.y.v.v.a.x.} } o o o o } } } } . . . .                   ",
"              . . } } } } w w w w  . .> > x.x.x.x.v.v.e.e.x.x.x.7.l.p.e.e.v.v.x.x.x.x.: :  .O.w w w w } } } } . .               ",
"              . . } } } } w w w w  . .> : c.x.x.x.v.v.e.e.7.x.7.x.z.x.e.e.v.v.x.7.x.x.: :  . .w w w w } } } } . .               ",
"          . . x.x.w w w w } } } } y y y y 7.7.7.7.x.x.x.x.x.x.x.x.x.7.x.x.x.x.x.7.7.7.y y y y } } } } w w w w p.x.. .           ",
"          . . x.p.w w w w } } { } y y y y 7.7.7.7.x.7.x.7.x.x.7.x.x.x.x.x.x.x.7.7.7.x.y y y y } } } } w w w w x.x.. .           ",
"          . . x.p.O.X.R #.Y A & $ } } t y } O.9 9 7.x.x.x.x.x.x.7.x.7.x.x.7.x.9 9 o.o.- y } } y t } } 6.6.O.o.x.x.. .           ",
"          . . x.x.O.O.6.6.} } 5 = } { = 1 O.O.9 9 x.x.x.x.x.7.x.x.x.7.x.7.x.x.9 9 O.O.5 y } { t t } } 6.6.O.O.x.x.. .           ",
"              . . x.x.x.x.* * 7.7.- & d w ^ ^ V.V.<.>.9 w u.u.v v u.u.w w <.>.V.V.^ ^ w w y y 7.6.* * x.x.x.x.. .               ",
"              . . x.x.7.7.* * 7.7.y - e e ^ ^ V.V.>.>.w w u.u.v v u.u.w w >.>.V.V.^ ^ w w y - x.7.* * x.x.x.x.. .               ",
"              . . x.x.x.x.z z 7.7.y y 4 3 ~ ^ c c >.i.q w u.&.B.B.u.u.w w <.i.c c ^ ^ w w y 5 7.7.z z x.x.x.x.. . . .           ",
"              . . x.x.x.7.z z 7.7.y y 7 3 } | m n 4.>.S E  .} V.B.u.u.w w >.>.c c ^ ^ w w y 5 7.7.z z x.x.x.x.. . . .           ",
"              . . x.x.x.x.9 9 7.7.W W , 3 1 1 t t ....[ } } } j j *.*.j j ;.;.t y y y , , ( W 7.7.6 9 x.x.x.x.. . . .           ",
"              . . x.x.x.x.9 9 7.7.{ { , 5 1 1 t t ..) } } } } j j *.*.z x ;.;.y y y y < , { W 7.7.9 9 x.x.x.x.. . . .           ",
"                  o . x.x.O.O.7.7.7.3.C g ] ] 7.6.t t } } } } 1 1 1 1 1 1 1 1 x.x.x.x.C z 3.3.7.7.O.O.x.x.. . } } . .           ",
"                  . . x.x.O.O.7.7.3.3.l k ] ] 7.7.t t S H E ' 1 1 1 1 1 1 1 1 x.x.x.a.C z 3.6.x.7.O.O.p.p.. . } } . .           ",
"                  . . x.x.} } x.7.7.x.5.+.w w p.a.g 8 1 1 1 1 4.x.x.x.m.m._ _ s.s.s.s.x.x.x.x.x.x.}  .x.x.. . . .               ",
"                  . . x.p.}  .x.x.x.x.>.+.K @.f.d.Q x i u 1 1 >.x.a.p.m.m._ _ s.s.s.s.x.x.p.x.x.x.} } x.x.. . . .               ",
"              . . l C x.x.x.p.a.x.7.3.r.t.i.s.| | 0.9.a h N h >.5.k.k.a a a a w w s.s.w.w.x.x.x.x.x.x.x.x.M l . .               ",
"              . . l l x.x.x.x.x.x.p.x.r.w.s.s.J W u.8.a a L f f Z L k.a a a a w w d.d.w.w.x.x.x.x.p.x.x.x.g l . .               ",
"          O X U T w w x.x.p.x.x.x.x.x.7.x.w w w e w 7 7 w 7 w w w w p w w w w w w w w x.x.x.x.x.p.a.v.x.x.w w T T O X           ",
"          X X 2 D w w x.x.x.x.x.x.x.x.7.x.w w w w w w w w w w w w w p w w w w w w w w x.7.x.x.x.x.x.x.a.x.w w Y T X X           ",
"      . . c.c.+ : o.$.7.p.p.p.5.p.7.x.x.x.w w w w w w w w d w w w w a w w w w w w w w x.x.x.x.<.>.x.x.x.x.x.x.T T c.c.. .       ",
"      . . c.c.. . 6 q x.>.v.x.x.7.x.x.x.x.w w w w w w w w w w w w 0 p w w w w w w w w 7.x.x.x.>.>.x.x.x.x.v.x.T T c.c.. .       ",
"      . . . . 5.7.A w 7.p.x.x.x.x.5.x.7.x.w w w w w w w w w w w w w w w w w w w w w w x.7.x.x.7.x.x.x.N.N.x.x.x.x.x.x.. .       ",
"      . . . . 5.-.W w 2.x.x.x.x.x.5.x.x.x.9 w w w w w w w w w w w w w w w w w w w w w x.x.x.7.x.x.x.x.N.N.x.x.x.x.x.x.. .       ",
"      . . -.:.7.7.M w :.x.6.x.x.x.x.x.x.x.6.6.O.O.} } w w w w w w w w w w } } O.O.6.6.7.x.x.x.x.x.x.x.x.x.x.x.. . . . . .       ",
"      . . 6.x.x.=.7 w #.7.7.7.x.x.x.x.x.7.7.7.o.o.} } 0 0 7 e e w w w w w { { o.o.7.7.x.x.x.x.x.x.x.x.x.x.x.7.. . . . . .       ",
"      . . 6.:.e w } +.2.x.5.7.x.x.x.x.x.x.x.7.x.7.x.x.7.7.;.) b Z R x.x.7.7.c.x.7.x.7.x.x.x.x.x.x.x.x.. . . . w w } } . .       ",
"      . . <.2.w w <.7.x.x.1.x.x.x.7.x.x.c.x.x.x.x.c.7.x.x.x.7.1.1.7.x.7.x.x.x.x.x.x.7.x.7.c.7.x.x.x.x.. . . . w w } } . .       ",
"      . . 6.7.=.<.x.7.x.1.x.5.7.x.x.7.b.M.7.7.x.7.7.x.x.x.x.x.7.x.x.x.x.7.x.x.1.1.x.x.b.b.x.x.x.x.% O } } } } } } } } . .       ",
"      . . 2.7.5.x.x.7.x.7.x.5.x.7.x.x.n.M.x.x.x.x.x.x.x.7.x.x.x.c.x.x.7.x.x.x.<.<.x.x.x.x.x.x.x.x.F q } } } } } } } } . .       ",
"          . . 6.2.6.Y Y c.x.x.x.x.x.x.7.x.x.x.x.7.x.x.7.x.x.x.x.7.x.x.x.x.7.x.x.x.x.x.7.7.x.7.x.x.x.5.Y T } } } } . .           ",
"          . . <.5.:.Y Y x.x.x.x.x.x.x.7.x.7.x.x.x.7.x.x.7.x.x.7.7.x.x.7.x.x.x.7.x.x.x.x.x.x.x.x.x.c.x.Y Y } } } } . .           ",
"              . . . X . c.c.x.x.7.x.x.x.x.x.N.N.x.x.x.x.x.x.7.c.x.x.x.x.7.c.x.N.N.x.7.x.x.7.x.x.x.x.x.O X . . . .               ",
"              . . . X X x.c.x.x.x.x.x.x.x.x.N.N.x.x.x.x.x.x.x.x.x.x.x.x.x.x.x.N.N.x.x.x.x.x.x.x.x.c.c.X X . . . .               ",
"                        . . . . x.x.N.N.x.x.x.x.x.x.x.x.x.x.. . . x.x.x.x.x.x.x.x.x.x.N.N.x.x.. . . .                           ",
"                        . . . . x.x.N.N.c.x.x.x.v.a.x.x.x.x.. . . x.x.x.x.x.x.x.x.x.x.N.N.x.x.. . . .                           ",
"                                . . x.x.7.x.x.x.. . . . . .       . . . . . o x.x.7.c.7.x.. .                                   ",
"                                . . x.x.x.x.x.x.. . . . . .       . . . . . . x.x.x.x.x.x.. .                                   ",
"                                    . . . . . .                               o . . . . .                                       ",
"                                    . . . . . .                               . . . . . .                                       ",
"                                                                                                                                "
};
