/* XPM */
static char *_0216ee0a95b4041a1b0f3772e176727xlQSRjnlAx857Lu0[] = {
/* columns rows colors chars-per-pixel */
"64 64 11 1 ",
"  c None",
". c black",
"X c #BD2B20",
"o c #C93226",
"O c #DB3C2C",
"+ c #D65238",
"@ c #EA482E",
"# c #94B06C",
"$ c #FFF17D",
"% c #F5E8A9",
"& c white",
/* pixels */
"                                                                ",
"                                                                ",
"                           &&&&&&&&&&                           ",
"                           &&&&&&&&&&                           ",
"                          &&&&&&&&&&&&                          ",
"                         &&&&&&&&&&&&&&                         ",
"                         &&&&&&&&&&&&&&                         ",
"                           XoO@@@@OoX                           ",
"                           XoO@@@@OoX                           ",
"                           XoO@@@@OoX                           ",
"                           XoO@@@@OoX                           ",
"                           $$$$$$$$$$                           ",
"                           &&$&&&&$&&                           ",
"                           &$&&&&&&$&                           ",
"                           &$&&&&&&$&                           ",
"                           &$&&&&&&$&                           ",
"                           &&$&&&&$&&                           ",
"                           $$$$$$$$$$                           ",
"                           XoO@@@@OoX                           ",
"                           XoO@@@@OoX                           ",
"                           XoO@@@@OoX                           ",
"                           XoO@@@@OoX                           ",
"                          XoO@@@@@@OoX                          ",
"                          XoO@@@@@@OoX                          ",
"                          XoO@@@@@@OoX                          ",
"                          XoO@@@@@@OoX                          ",
"                          XoO@@@@@@OoX                          ",
"                         XoO@@@@@@@@OoX                         ",
"                         XoO@@@@@@@@OoX                         ",
"                         XoO@@@@@@@@OoX                         ",
"                         XoO@@@@@@@@OoX                         ",
"                         XoO@@@@@@@@OoX                         ",
"                        XoO@@@@@@@@@@OoX                        ",
"                        XoO@@@@@@@@@@OoX                        ",
"                        XoO@@@@@@@@@@OoX                        ",
"                       XoO@@@@@@@@@@@@OoX                       ",
"                       XoO@@@@@@@@@@@@OoX                       ",
"                       XoO@%%%%%%%%%%@OoX                       ",
"                       XoO@%&&&&&&&&%@OoX                       ",
"                       XoO@%&&&&&&&&%@OoX                       ",
"                       XoO@%%%%%%%%%%@OoX                       ",
"                       XoO@@%&&&&&&%@@OoX                       ",
"                       XoO@@%%%%%%%%@@OoX                       ",
"                       XoO%%%%%%%%%%%%OoX                       ",
"                       XoO%&........&%OoX                       ",
"                       XoO%&&&&&&&&&&%OoX                       ",
"                       XoO%&&&&&&&&&&%OoX                       ",
"                       XoO%&&&&&&&&&&%OoX                       ",
"                       XoO%&&&&&&&&&&%OoX                       ",
"                       XoO%&&......&&%OoX                       ",
"                       XoO%%%%%%%%%%%%OoX                       ",
"                       XoOO%%%%%%%%%%OOoX                       ",
"                       XoOO%&&&&#&&&%OOoX                       ",
"                       XoOO%&@@##@@&%OOoX                       ",
"                       XoOO%@@@@@@@@%OOoX                       ",
"                       XoOO%@@@@@@@@%OOoX                       ",
"                       XoOO%@@@@@@@@%OOoX                       ",
"                       XoOO%&@@@@@@&%OOoX                       ",
"                       XoOO%&&@@@@&&%OOoX                       ",
"                       XoOO%%%%%%%%%%OOoX                       ",
"                       XoOOO%&&&&&&%OOOoX                       ",
"                       XXOOO%%%%%%%%OOOXX                       ",
"                        XXOO++++++++OOXX                        ",
"                         XXXXXXXXXXXXXX                         "
};
