/* XPM */
static char *d231f46fb1d64b35926fec9088b4a5d8HDbWlD0hYMGC5fgI[] = {
/* columns rows colors chars-per-pixel */
"64 64 11 1 ",
"  c None",
". c #101010",
"X c #686868",
"o c #E00000",
"O c #805000",
"+ c #F84848",
"@ c #C08800",
"# c #E8A800",
"$ c #F0D000",
"% c #F8F068",
"& c #F8F8F8",
/* pixels */
"                                                                ",
"                                       ....                     ",
"                                       ....                     ",
"                ....                   ..XX..                   ",
"                ....                   ..XX..                   ",
"                ..XX....               ....XX..                 ",
"                ..XX....               ....XX..                 ",
"                ....XXXX..             ........                 ",
"                ....XXXX..             ........                 ",
"                  ....XXXX..           ..OO@@%%..               ",
"                  ....XXXX..           ..OO@@%%..               ",
"                  ............           OO%%%%..               ",
"                  ............           OO%%%%..               ",
"                  ............           OO%%%%..               ",
"         OO       ......@@%%%%..         ..%%%%%%OO             ",
"         OO       ......@@%%%%..         ..%%%%%%OO             ",
"       ..&&OOO      ..@@$$%%%%%%...@@@@@@@@##$$%%OO             ",
"       ..&&OOO      ..@@$$%%%%%%...@@@@@@@@##$$%%OO             ",
"     ..$$%%&&&OO    ..$$$$$$%%%%OOO##$$%%%%%%%%@@@@             ",
"     ..$$%%&&&OO    ..$$$$$$%%%%OOO##$$%%%%%%%%@@@@             ",
"   ..$$$$$$%%%&&OO    ..$$$$$$%%%%%%%%%%%%%%%%%%%%%..           ",
"   ..$$$$$$%%%&&OO    ..$$$$$$%%%%%%%%%%%%%%%%%%%%%..           ",
" ..$$$$$$$$$$$%%&&..    ..$$$$$$%%%%%%%%%%%%%%%%%%%%%OOO        ",
" ..$$$$$$$$$$$%%&&..    ..$$$$$$%%%%%%%%%%%%%%%%%%%%%OOO        ",
" ..##$$$$$$$$$$$%%&&..  ..@@%%%%%%%%%%%%%%%%%%%%%%%%%@@@        ",
" ..##$$$$$$$$$$$%%&&..  ..@@%%%%%%%%%%%%%%%%%%%%%%%%%@@@        ",
"   ..##$$$$$$$$$$$%%&&..@@%%%%%%%%%%%%%%%%%%%%%%%..&&%%%OO      ",
"   ..##$$$$$$$$$$$%%&&..@@%%%%%%%%%%%%%%%%%%%%%%%..&&%%%OO      ",
"     ..@@$$$$$$$$$$$%%..##%%%%%%%%%%%..&&%%%%%%%%OO..%%%OO      ",
"     ..@@$$$$$$$$$$$%%..##%%%%%%%%%%%..&&%%%%%%%%OO..%%%OO      ",
"         ..$$$$$$$$$....$$%%%%%%%%%%%OO..%%%%%%%%%%%%%%%..      ",
"         ..$$$$$$$$$....$$%%%%%%%%%%%OO..%%%%%%%%%%%%%%%..      ",
"         ..$$$$$$$$$....$$%%%%%%%%%%%OO..%%%%%%%%%%%%%%%..      ",
"           ...$$$$..  ..$$$$%%%%ooo++%%%%%%%%%%##%%%%@@@        ",
"           ...$$$$..  ..$$$$%%%%ooo++%%%%%%%%%%##%%%%@@@        ",
"         ..$$$$$..    ..$$$$%%%%ooooo%%%%%%##@@%%##$$...        ",
"         ..$$$$$..    ..$$$$%%%%ooooo%%%%%%##@@%%##$$...        ",
"       ..$$$$$$$$$..OO@@$$$$$$$$%%%%%%%%%%%$$$$$$$$..           ",
"       ..$$$$$$$$$..OO@@$$$$$$$$%%%%%%%%%%%$$$$$$$$..           ",
"         ..$$$$$$$$$..@@@@$$$$$$$$$$$$$$$$$$$$$$$$$..           ",
"         ..$$$$$$$$$..@@@@$$$$$$$$$$$$$$$$$$$$$$$$$..           ",
"           ...$$@@....$$@@$$$$$$$$$$$$$$$$$$$$$$$$$##OOO        ",
"           ...$$@@....$$@@$$$$$$$$$$$$$$$$$$$$$$$$$##OOO        ",
"         ..@@@@@..  ..$$$$$$$$@@$$$$$OO$$$$$$$$$$OO$$OOO        ",
"         ..@@@@@..  ..$$$$$$$$@@$$$$$OO$$$$$$$$$$OO$$OOO        ",
"         ..@@@..  ..@@$$$$$$$$@@$$$$$##@@$$$$$$$$OO$$OOO        ",
"         ..@@@..  ..@@$$$$$$$$@@$$$$$##@@$$$$$$$$OO$$OOO        ",
"           ...@@....@@@@$$$$$$$$OOO$$##@@$$$$$$$$$$OO@@@        ",
"           ...@@....@@@@$$$$$$$$OOO$$##@@$$$$$$$$$$OO@@@        ",
"              ..@@..##@@$$$$$$$$$$$OOOO##$$$$$$$$$$##OOO        ",
"              ..@@..##@@$$$$$$$$$$$OOOO##$$$$$$$$$$##OOO        ",
"                ....####$$$$$$$$$$$$$$$$$$$$$$$$$$$##OOO        ",
"                ....####$$$$$$$$$$$$$$$$$$$$$$$$$$$##OOO        ",
"                  ..OO####$$$$$$$$$$$$$$$$$$$$$$$##OO...        ",
"                  ..OO####$$$$$$$$$$$$$$$$$$$$$$$##OO...        ",
"                  ..OO####$$$$$$$$$$$$$$$$$$$$$$$##OO...        ",
"                    ..OO######$$$$$$$############OOOO...        ",
"                    ..OO######$$$$$$$############OOOO...        ",
"                      ....#############..............           ",
"                      ....#############..............           ",
"                          OOOOOOOOO....                         ",
"                          OOOOOOOOO....                         ",
"                            .......                             ",
"                            .......                             "
};
