/* XPM */
static char *_e0ed93fc0d84626cf43532dc162a0135Esl8Mj148Z0kxFB[] = {
/* columns rows colors chars-per-pixel */
"64 64 31 1 ",
"  c None",
". c black",
"X c #0E1726",
"o c #201F20",
"O c #022129",
"+ c #342E2E",
"@ c #37373B",
"# c #553627",
"$ c #5D3720",
"% c #6A2E2E",
"& c #7E2036",
"* c #0A4036",
"= c #604030",
"- c #2C2C44",
"; c #103873",
": c #254B75",
"> c gray25",
", c #46454B",
"< c #404356",
"1 c #B92E2E",
"2 c #EE5D3D",
"3 c #C3865E",
"4 c #D09870",
"5 c #1451A2",
"6 c #175EAE",
"7 c #4B75CB",
"8 c #F8D0B8",
"9 c #B1A8CB",
"0 c #E5E5F7",
"q c #E8E8F8",
"w c #F8F8F8",
/* pixels */
"                                                                ",
"                         &&&&&&&&&&&&&&&                        ",
"                         &&&&&&&&&&&&&&&                        ",
"                    &&&&&111222222222111&&&&                    ",
"                    &&&&&111222222222111&&&&                    ",
"                    &&&&&111222222222111&&&&                    ",
"                  &&111222222.......22222211&&&                 ",
"                  &&111222....00000...222211&&&                 ",
"                ..112222....000000000...2222111..               ",
"                ..11222..0000000000000...222111..               ",
"                ..11222..0000000000000...222111..               ",
"                ..1122..0000000000000000.222111..               ",
"                ..11...00000000000000000..22111..               ",
"             ...1111..000000000...0000000.2211111...            ",
"             ...1111..000000........00000.2211111...            ",
"             ...111...0000...222222.00000..111111...            ",
"             ...111...0000...222222.00000..111111...            ",
"             ...111.000000..2222222..00000.111111...            ",
"           XX...111...000...22222222.00000..11111...XX          ",
"           XX.......................................XX          ",
"      ..XXX<<---..##000000000000000000000000###..---<<XX...     ",
"      ..XXX<<---..##000000000000000000000000###..---<<XX...     ",
"      ..XXX<<---..##000000000000000000000000###..---<<XX...     ",
"        ...-------..999990000000000000009999...-------..        ",
"        ...-------..999990000000000000009999...-------..        ",
"           ..-------...>>999000000000999>>..--------..          ",
"           ..-------...>>999000000000999>>..--------..          ",
"             ...XXXX444ww===%%%%%%%%%===ww44XXXXX...            ",
"             ...XXXX444ww===%%%%%%%%%===ww44XXXXX...            ",
"             ...XXXX444ww===%%%%%%%%%===ww44XXXXX...            ",
"           ..XXX----888ww...888888888...ww88-----XXX..          ",
"           ..XXX----888ww...888888888...ww88-----XXX..          ",
"             .....--XXX8888888888888888888XX---.....            ",
"             .....--XXX8888888888888888888XX---.....            ",
"             .....--XXX8888888888888888888XX---.....            ",
"                  .....==444884444488444==.....                 ",
"                  .....==444884444488444==.....                 ",
"                  ..qqqqq.....$$$$$.....qqqq...                 ",
"                  ..qqqqq.....$$$$$.....qqqq...                 ",
"                ..qq66666qqqqq>>>>>qqqqq6666qqq..               ",
"                ..qq66666qqqqq>>>>>qqqqq6666qqq..               ",
"                ..qq66666qqqqq>>>>>qqqqq6666qqq..               ",
"             ...333366666;;;55qOOOq55;;;666633333...            ",
"             ...333366666;;;55qOOOq55;;;666633333...            ",
"             +++**44...7755555OqqqO5555577..444**+++            ",
"             +++**44...7755555OqqqO5555577..444**+++            ",
"             +++**44...7755555OqqqO5555577..444**+++            ",
"           ++,,,++..   ..55555OqqqO55555..  ...++,,,++          ",
"           ++,,,++..   ..55555OqqqO55555..  ...++,,,++          ",
"           ++,,,,,..   ..55555qqqqq55555..  ...,,,,,++          ",
"           ++,,,,,..   ..qqqqqqOOOqqqqqq..  ...,,,,,++          ",
"             .....  ...::777oo@@@@@oo777::..   .....            ",
"             .....  ...::777oo@@@@@oo777::..   .....            ",
"             .....  ...::777oo@@@@@oo777::..   .....            ",
"                    ...7777777:::::7777777..                    ",
"                    ...7777777:::::7777777..                    ",
"                    ...:::::77.....77:::::..                    ",
"                    ...:::::77.....77:::::..                    ",
"                    ...:::::77.....77:::::..                    ",
"                    ...@@@@@..     ..@@@@@..                    ",
"                    ...@@@@@..     ..@@@@@..                    ",
"                       .....         .....                      ",
"                       .....         .....                      ",
"                                                                "
};
