/* XPM */
static char *_518bb43eabb4bf1be496a8ba45d2cc7hClZ9FKiiuv0iYap[] = {
/* columns rows colors chars-per-pixel */
"64 64 30 1 ",
"  c None",
". c black",
"X c #1F160A",
"o c #0E1726",
"O c #201F20",
"+ c #022129",
"@ c #2E202E",
"# c #342E2E",
"$ c #37373B",
"% c #7E2036",
"& c #604030",
"* c #2C2C44",
"= c #103873",
"- c #254B75",
"; c gray25",
": c #46454B",
"> c #404356",
", c #B92E2E",
"< c #EE5D3D",
"1 c #C3865E",
"2 c #D09870",
"3 c #1451A2",
"4 c #4B75CB",
"5 c #7C8484",
"6 c #949C9C",
"7 c #F8D0B8",
"8 c #B1A8CB",
"9 c #E5E5F7",
"0 c #E8E8F8",
"q c #F8F8F8",
/* pixels */
"                                                                ",
"                       %%%%%%%%%%%%%%                           ",
"                       %%%%%%%%%%%%%%                           ",
"                  %%%%%<<<<<<<<<<<<<<%%%%%                      ",
"                  %%%%%<<<<<<<<<<<<<<%%%%%                      ",
"                  %%%%%<<<<<<<<<<<<<<%%%%%                      ",
"                %%<<<<<<<<<<<<<<<<<<<<<<<<%%                    ",
"                %%<<<<<<<<<<<<<<<<<<<<<<<<%%                    ",
"             ...,,<<<<<<<<<<<<<<<<<<<<<<<<,,...                 ",
"             ...,,<<<<<<<<<<<<<<<<<<<<<<<<,,...                 ",
"             ...,,<<<<<<<<<<<<<<<<<<<<<<<<,,...                 ",
"             ...,,<<<<<<<<<<<<<<<<<<<<.........                 ",
"             ...,,<<<<<<<<<<<<<<<<<<<<..9988...                 ",
"           ..%%%,,<<<<<<<<<<<<<<<<<<..999999888..               ",
"           ..%%%,,<<<<<<<<<<<<<<<<<<.9999999888..               ",
"           ..@@@%%,,<<<<<<<<<<<<<<<<.9999999999..%%%%%          ",
"           ..@@@%%,,<<<<<<<<<<<<<<<<.9999999999..%%%%%          ",
"           ..@@@%%,,<<<<<<<<<<<<<<<<.9999........%%%%%          ",
"           ..,,,@@,,,,,,,,,,,,,,,,,,.9999.<<<<<..88888%%        ",
"           ..,,,@@,,,,,,,,,,,,,,,,,,.9999.<<<<<..88888%%        ",
"           ..,,,%%,,,,,,,,,,,,,,,,,,.9999.<<.....9999988%%%     ",
"           ..,,,%%,,,,,,,,,,,,,,,,,,.9999.<<.....9999988%%%     ",
"           ..,,,%%,,,,,,,,,,,,,,,,,,.9999.<<.....9999988%%%     ",
"        ...*****,,,,,,,,,,,,,,,,,,,,.9999......999999988%%%     ",
"        ...*****,,,,,,,,,,,,,,,,,,,,..999999...999999988%%%     ",
"        ...*******,,,,,,,,,,,,,,,,,,,.99999...88888888%%        ",
"        ...*******,,,,,,,,,,,,,,,,,,,,........88888888%%        ",
"      ..>>>************oo*****oo&&&qq&&&%%%%%%%%%%%%%%          ",
"      ..>>>************oo*****oo&&&qq&&&%%%%%%%%%%%%%%          ",
"      ..>>>************oo*****oo&&&qq&&&%%%%%%%%%%%%%%          ",
"        .....*******ooo*****oooo222qq...7777&&&                 ",
"        .....*******ooo*****oooo222qq...7777&&&                 ",
"             .....*****ooooooo22222777777777222                 ",
"             .....*****ooooooo22222777777777222                 ",
"             .....*****ooooooo22222777777777222                 ",
"             ...****...*******ooooo2277722&&                    ",
"             ...****...*******ooooo2277722&&                    ",
"                ....   .....oooo...&&.....                      ",
"                ....    ....oooo...&&.....                      ",
"                    ..   333..33000..                           ",
"                    ..   333..33000..                           ",
"                          33..33000..                           ",
"                          ..335533300...                        ",
"                         ...335533300...                        ",
"                         ...666655500;;;                        ",
"                        4...666655530;;;                        ",
"                        4...666655530;;;                        ",
"                       ..=====11XXX30+++..                      ",
"                       ..=====11XXX30+++..                      ",
"                       ..333..:::::30+++..                      ",
"                      ...333..:::::30+++..                      ",
"                       ..---..#####30---..                      ",
"                       ..---..#####30---..                      ",
"                       ..---..#####30---..                      ",
"                         ...--.....-0XXX                        ",
"                         ...--.....-0XXX                        ",
"                         ...--44444XX                           ",
"                         ...--44444XX                           ",
"                         ...--44444XX                           ",
"                         ...OO$$.....                           ",
"                         ...OO$$.....                           ",
"                            .......                             ",
"                            .......                             ",
"                                                                "
};
