/* XPM */
static char *_d37460855ae4406b0982628e3b00362oFay5P0t7t0rr6zB[] = {
/* columns rows colors chars-per-pixel */
"64 64 30 1 ",
"  c None",
". c black",
"X c #1F160A",
"o c #0E1726",
"O c #201F20",
"+ c #022129",
"@ c #2E202E",
"# c #342E2E",
"$ c #37373B",
"% c #7E2036",
"& c #604030",
"* c #2C2C44",
"= c #103873",
"- c #254B75",
"; c gray25",
": c #46454B",
"> c #404356",
", c #B92E2E",
"< c #EE5D3D",
"1 c #C3865E",
"2 c #D09870",
"3 c #1451A2",
"4 c #4B75CB",
"5 c #7C8484",
"6 c #949C9C",
"7 c #F8D0B8",
"8 c #B1A8CB",
"9 c #E5E5F7",
"0 c #E8E8F8",
"q c #F8F8F8",
/* pixels */
"                                                                ",
"                           %%%%%%%%%%%%%%%                      ",
"                           %%%%%%%%%%%%%%%                      ",
"                      %%%%%<<<<<<<<<<<<<<<%%%%                  ",
"                      %%%%%<<<<<<<<<<<<<<<%%%%                  ",
"                      %%%%%<<<<<<<<<<<<<<<%%%%                  ",
"                    %%<<<<<<<<<<<<<<<<<<<<<<<<%%%               ",
"                    %%<<<<<<<<<<<<<<<<<<<<<<<<%%%               ",
"                  ..,,<<<<<<<<<<<<<<<<<<<<<<<<,,,..             ",
"                  ..,,<<<<<<<<<<<<<<<<<<<<<<<<,,,..             ",
"                  ........<<<<<<<<<<<<<<<<<<<<,,,..             ",
"                  ........<<<<<<<<<<<<<<<<<<<<,,,..             ",
"                  ..88999.<<<<<<<<<<<<<<<<<<<<,,,..             ",
"               ...88999999..<<<<<<<<<<<<<<<<<<,,,%%...          ",
"               ...889999999.<<<<<<<<<<<<<<<<<<,,,%%...          ",
"          %%%%%...999999999.<<<<<<<<<<<<<<<<,,%%%@@...          ",
"          %%%%%.........999.<<<<<<<<<<<<<<<<,,%%%@@...          ",
"          %%%%%.........999.<<<<<<<<<<<<<<<<,,%%%@@...          ",
"        %%88888...<<<<..999.,,,,,,,,,,,,,,,,,,@@@,,...          ",
"        %%88888...<<<<..999.,,,,,,,,,,,,,,,,,,@@@,,...          ",
"      %%8899999.....<<..999.,,,,,,,,,,,,,,,,,,%%%,,...          ",
"      %%8899999.....<<..999.,,,,,,,,,,,,,,,,,,%%%,,...          ",
"      %%8899999999......999.,,,,,,,,,,,,,,,,,,,,,*****..        ",
"      %%8899999999......999.,,,,,,,,,,,,,,,,,,,,,*****..        ",
"      %%8899999999..999999..,,,,,,,,,,,,,,,,,,,,,*****..        ",
"        %%888888888..99999.,,,,,,,,,,,,,,,,,,,********..        ",
"        %%888888888.......,,,,,,,,,,,,,,,,,,,,********..        ",
"          %%%%%%%%%%%%%%%&&qqq&&oo*****ooo************>>..      ",
"          %%%%%%%%%%%%%%%&&qqq&&oo*****ooo************>>..      ",
"          %%%%%%%%%%%%%%%&&qqq&&oo*****ooo************>>..      ",
"                  &&77777..qqq22ooooo*****oo*******.....        ",
"                  &&77777..qqq22ooooo*****oo*******.....        ",
"                  2277777777772222oooooooo****.....             ",
"                  2277777777772222oooooooo****.....             ",
"                    &&22277222oooo********..*****..             ",
"                    &&22277222oooo********..*****..             ",
"                    &&22277222oooo********..*****..             ",
"                      .....&&&..ooooo.....  .....               ",
"                      .....&&&..ooooo...    .....               ",
"                           ...0033...33    .                    ",
"                           ...0033...3                          ",
"                           ...0033...3                          ",
"                         ..0003355333.                          ",
"                         ..0003355333..                         ",
"                         ;;0005566666..                         ",
"                         ;;0335566666..4                        ",
"                      ...++033XX11=====...                      ",
"                      ...++033XX11=====...                      ",
"                      ...++033XX11=====...                      ",
"                      ...++033::::...33...                      ",
"                      ...++033::::...33....                     ",
"                      ...--033####...--...                      ",
"                      ...--033####...--...                      ",
"                      ...--033####...--...                      ",
"                         XX0--....---..                         ",
"                         XX0--....---..                         ",
"                           XXX4444---..                         ",
"                           XXX4444---..                         ",
"                           .....$$OOO..                         ",
"                           .....$$OOO..                         ",
"                           .....$$OOO..                         ",
"                              .......                           ",
"                              .......                           ",
"                                                                "
};
