/* XPM */
static char *_abab46d6e9b4c5493c09a596380cea5i30akcvVykgMG19e[] = {
/* columns rows colors chars-per-pixel */
"64 64 24 1 ",
"  c None",
". c black",
"X c #0E1726",
"o c #201F20",
"O c #342E2E",
"+ c #382838",
"@ c #353535",
"# c #7E2036",
"$ c #2C2C44",
"% c #103873",
"& c #384040",
"* c #254B75",
"= c #46454B",
"- c #404356",
"; c #B92E2E",
": c #C03838",
"> c #EE5D3D",
", c #882840",
"< c #D09870",
"1 c #1451A2",
"2 c #7C8484",
"3 c #4F81D1",
"4 c #949C9C",
"5 c #D2DDDF",
/* pixels */
"                                                                ",
"                         ++++++++++++++                         ",
"                         ++++++++++++++                         ",
"                    ++####################++                    ",
"                    ++####################++                    ",
"                    ++####################++                    ",
"                  @@##>>>>>>>>>>>>>>>>>>>>,,@@                  ",
"                  @@##>>>>>>>>>>>>>>>>>>>>,,@@                  ",
"               @@@::>>>>>>>>>>>>>>>>>>>>>>>>::@@@               ",
"               @@@::>>>>>>>>>>>>>>>>>>>>>>>>::@@@               ",
"               @@@::>>>>>>>>>>>>>>>>>>>>>>>>::@@@               ",
"               @@@>>>>>>>>>>>>>>>>>>>>>>>>>>>>@@@               ",
"               @@@>>>>>>>>>>>>>>>>>>>>>>>>>>>>@@@               ",
"             @@;;;>>>>>>>>>>>>>>>>>>>>>>>>>>>>;;;@@             ",
"             @@;;;>>>>>>>>>>>>>>>>>>>>>>>>>>>>;;;@@             ",
"             @@;;;;;>>>>>>>>>>>>>>>>>>>>>>>>;;;;;@@             ",
"             @@;;;;;>>>>>>>>>>>>>>>>>>>>>>>>;;;;;@@             ",
"             @@;;;;;>>>>>>>>>>>>>>>>>>>>>>>>;;;;;@@             ",
"             ..;;;;;;;;;;>>>>>>>>>>>>>>;;;;;;;;;;..             ",
"             ..;;;;;;;;;;>>>>>>>>>>>>>>;;;;;;;;;;..             ",
"             ..###;;;;;;;;;;;;;;;;;;;;;;;;;;;;###..             ",
"             ..###;;;;;;;;;;;;;;;;;;;;;;;;;;;;###..             ",
"             ..###;;;;;;;;;;;;;;;;;;;;;;;;;;;;###..             ",
"        ..XXX--...;;;;;;;;;&&&&&&&&&&;;;;;;;;;...--.....        ",
"        ..XXX--...;;;;;;;;;&&&&&&&&&&;;;;;;;;;...--.....        ",
"          ...$$$$$..;;;;;&&&&&&&&&&&&&&;;;;;..$$$$$...          ",
"          ...$$$$$..;;;;;&&&&&&&&&&&&&&;;;;;..$$$$$...          ",
"             ..$$$$$.....;;;;;;;;;;;;;;.....$$$$$..             ",
"             ..$$$$$.....;;;;;;;;;;;;;;.....$$$$$..             ",
"             ..$$$$$.....;;;;;;;;;;;;;;.....$$$$$..             ",
"               ...XX$$$$$..............$$$$$XX...               ",
"               ...XX$$$$$..............$$$$$XX...               ",
"               XXX$$$$$$$$$$$$$$$$$$$$$$$$$$$$XXX               ",
"               XXX$$$$$$$$$$$$$$$$$$$$$$$$$$$$XXX               ",
"               XXX$$$$$$$$$$$$$$$$$$$$$$$$$$$$XXX               ",
"                  ....$$$..$$$$$$$$$$..$$$....                  ",
"                  ....$$$..$$$$$$$$$$..$$$....                  ",
"                  ..55...%%***3333***44...55..                  ",
"                  ..55...%%***3333***44...55..                  ",
"               ...%%%%%%%%%3333333333%%222%%%%...               ",
"               ...%%%%%%%%%3333333333%%222%%%%...               ",
"               ...%%%%%%%%%3333333333%%222%%%%...               ",
"             ..<<<<<%%...%%3333333333%%...%%<<<<<..             ",
"             ..<<<<<%%...%%3333333333%%...%%<<<<<..             ",
"             ==...<<.....%%3333333333%%.....<<...==             ",
"             ==...<<.....%%3333333333%%.....<<...==             ",
"             ==...<<.....%%3333333333%%.....<<...==             ",
"          =====OOO..  ...%%3333333333%%...  ..OOO=====          ",
"          =====OOO..  ...%%3333333333%%...  ..OOO=====          ",
"          =====OOO..  ...11333333333311...  ..OOO=====          ",
"          =====OOO..  ...11333333333311...  ..OOO=====          ",
"             .....  ..***%%3333333333%%***..  .....             ",
"             .....  ..***%%3333333333%%***..  .....             ",
"             .....  ..***%%3333333333%%***..  .....             ",
"                    ..*****%%%%%%%%%%*****..                    ",
"                    ..*****%%%%%%%%%%*****..                    ",
"                    ..********....********..                    ",
"                    ..********....********..                    ",
"                    ..********....********..                    ",
"                    ..ooooo...    ...ooooo..                    ",
"                    ..ooooo...    ...ooooo..                    ",
"                      .....          .....                      ",
"                      .....          .....                      ",
"                                                                "
};
