/* XPM */
static char *de2ccde387e049d4eb7fa368114e34b6Ry4v6EZIwMOQQwgv[] = {
/* columns rows colors chars-per-pixel */
"32 32 32 1 ",
"  c #78A158",
". c #A4C263",
"X c #8AAE5C",
"o c #7EA559",
"O c #7CA459",
"+ c #C0D470",
"@ c #B3CC6A",
"# c #BCD26E",
"$ c #A7C464",
"% c #ABC766",
"& c #80A75A",
"* c #B0CA69",
"= c #BED36F",
"- c #A6C364",
"; c #7EA55A",
": c #ACC767",
"> c #BDD26F",
", c #B9D06D",
"< c #B5CD6B",
"1 c #A5C167",
"2 c #A8C465",
"3 c #7AA258",
"4 c #BFD370",
"5 c #BAD06E",
"6 c #B4CC6A",
"7 c #AFC968",
"8 c #ABC666",
"9 c #83A95C",
"0 c #A5C263",
"q c #B8CF6C",
"w c #B7CE6C",
"e c #84AA5B",
/* pixels */
"                                ",
"...      ...XoO........      ...",
"..  ........................  ..",
"+  ......@.......+...........  +",
"+ ......+#.++.++++++++.+...... +",
"+  ....++++++++.++++$++++....  +",
"   ...++%+++++++++++++++++...   ",
"  ...++++++++++++++++++++++...  ",
"  ....++++++++++++++++++++....& ",
" ...++++++++++++++++++++++++*.. ",
" ...++++++++++++++++++++++++=--;",
" ...+:>+++++++++++++++++++++,<<1",
" X.2++++++++++++++++++++++++++++",
" 3...+++++++++++++++++++++++++++",
"  ..+++++-++++++++++++++++++++++",
" ..+++++++++++++++++++++++++++++",
" ..++.++++++++++++++++++++++++++",
" ...++++++++++++++++++++++++++++",
" ..+++++++++++++++++++++++++++++",
" ..+++++++++++++++++++++++++++++",
" ...+.++++++++++++++++++++++4==5",
" ...+++++++.++++++++++++++++6789",
" ...++++++++++++++++++++++++... ",
"  ....++++++++++++++++++++0...  ",
"  ...++++++++++++++++++++++...  ",
"   ...+++++++++++++++++7++...   ",
"+  ....++++.++++.++++++++....   ",
"+ ......+.++++++++.++.q+......  ",
"+  ...........+.......w......   ",
"..  ........................  . ",
"...      ........   ...e     .. ",
"                          ++... "
};
