/* XPM */
static char *_7d479d564074f77c3d51904fd49e944wbS0n4jVU7V6izaf[] = {
/* columns rows colors chars-per-pixel */
"32 32 34 1 ",
"  c white",
". c #78A158",
"X c #A4C263",
"o c #A9C565",
"O c #BBD16E",
"+ c #C0D470",
"@ c #A6C364",
"# c #7CA45C",
"$ c #A6C366",
"% c #A6C365",
"& c #A5C263",
"* c #A5C363",
"= c #96B667",
"- c #B0CA6A",
"; c #B0CA69",
": c #A9C666",
"> c #B5CD6B",
", c #BAD06E",
"< c #B8CE6D",
"1 c #B1CA69",
"2 c #BFD470",
"3 c #98B866",
"4 c #AAC666",
"5 c #A5C364",
"6 c #7AA258",
"7 c #79A159",
"8 c #ABC766",
"9 c #99B960",
"0 c #90625D",
"q c #AA7959",
"w c #B68962",
"e c #C49A6C",
"r c #BE9267",
"t c #BFCB6E",
/* pixels */
"     ......................     ",
"   ....XX...XXXXXXX....XX....   ",
"  ...XXXXXXXXXXXXXXXXXXXXXX...  ",
" ...XXXXXoO++XXXX++++XXXXXXX... ",
" ..XXXX++++++++++++++++++XXXX.. ",
"..XXXX++++++++++++++++++++XXXX..",
"..XXXX+XO++X+++++++X++++X+XXXX..",
".XXXX++++++++++++++++++++++XXXX.",
".XXXX++++++++++++++++++++++XXXX.",
"..XXX++++++++++++++++++++++XXX..",
"..XX@++++++++++++++++++++++XXX..",
"..XXX+++++++++++X++++++++++XXX..",
".XXX++++++++++++++++++++++++XXX.",
"#$%&++*++++++++++++++++++X++XXX.",
"=-;:+++>++++++++++++++++++++XXX.",
",<1X2++++++++++++++++++++++XXXX.",
"345++++++++++++++++++++++++5*X6.",
"7XXXX++++++++++++++++++++++8XX9.",
"..XXXX++XXXX+++++++XXXXXX++>&X..",
"...XXXXXXXXXXXXXXXXXXXXXXXXXX...",
"0...XXXXXXXXXXXXXXXXXXXXXXXX...0",
"0q....XX......XX.......XXX....q0",
"0wqq.....qqqq.....qqqqq.....qqw0",
"0wwwqqqqqwwwwqqqqqwwwwwqqqqqwww0",
"0weewwwwweeewwwwwwweewrwwwwweew0",
"0weeeeeeweeeeeeeeeweeeeweeeeeew0",
"0weeeeeeweeeeeeeeeweeeeweeeeeew0",
" weeeeeeweeeeeeeeeweeeeweeeeeew ",
" wweeeeeweeeeeeeeeweeeeweeeeeww ",
"  wweeewwweeewweeeweeewwweeeww  ",
"   wwwww+wwwwwwww+wwwww+wwwww   ",
"    w+w+wwwwwwwwwwtwwwww+w+w    "
};
